<svg viewBox="0 0 600 300" width="1200" height="600" xmlns="http://www.w3.org/2000/svg">
  <title>DSD AI Solutions</title>

  <!-- Fondo transparente -->

  <!-- Grupo centrado -->
  <g transform="translate(60, 20)">

    <!-- Letras DSD -->
    <text x="0" y="185" font-family="Arial Black, Arial, sans-serif" font-weight="900" font-size="170" fill="#1a1a1a">D</text>
    <text x="110" y="185" font-family="Arial Black, Arial, sans-serif" font-weight="900" font-size="170" fill="#1a1a1a">S</text>
    <text x="222" y="185" font-family="Arial Black, Arial, sans-serif" font-weight="900" font-size="170" fill="#1a1a1a">D</text>

    <!-- Cerebro poligonal sobre DS -->
    <g transform="translate(68, 0)" opacity="0.88">
      <!-- Lóbulo izquierdo -->
      <polygon points="55,18 92,12 108,40 82,60 52,50" fill="none" stroke="#444" stroke-width="1.4"/>
      <polygon points="92,12 128,22 122,55 108,40" fill="none" stroke="#444" stroke-width="1.4"/>
      <polygon points="108,40 122,55 112,80 86,74 82,60" fill="none" stroke="#444" stroke-width="1.4"/>
      <polygon points="55,18 52,50 32,55 28,28 48,13" fill="none" stroke="#444" stroke-width="1.4"/>
      <polygon points="52,50 32,55 37,80 62,85 82,60" fill="none" stroke="#444" stroke-width="1.4"/>
      <polygon points="32,55 18,65 22,85 37,80" fill="none" stroke="#444" stroke-width="1.4"/>
      <polygon points="62,85 82,60 86,74 76,100 56,95" fill="none" stroke="#444" stroke-width="1.4"/>
      <polygon points="28,28 48,13 55,18" fill="none" stroke="#444" stroke-width="1.4"/>
      <!-- Lóbulo derecho -->
      <polygon points="128,22 158,18 168,44 148,60 122,55" fill="none" stroke="#444" stroke-width="1.4"/>
      <polygon points="158,18 184,28 180,58 154,64 148,60" fill="none" stroke="#444" stroke-width="1.4"/>
      <polygon points="148,60 154,64 144,84 122,78 122,55" fill="none" stroke="#444" stroke-width="1.4"/>
      <polygon points="180,58 184,28 200,48 196,74 170,74" fill="none" stroke="#444" stroke-width="1.4"/>
      <polygon points="170,74 196,74 185,95 164,95 144,84" fill="none" stroke="#444" stroke-width="1.4"/>
      <polygon points="122,78 144,84 138,105 112,100" fill="none" stroke="#444" stroke-width="1.4"/>
      <!-- Centro -->
      <polygon points="86,74 112,68 122,78 112,100 92,100 76,100" fill="none" stroke="#444" stroke-width="1.4"/>
      <polygon points="112,68 122,55 122,78" fill="none" stroke="#444" stroke-width="1.4"/>
      <!-- Tallo -->
      <line x1="102" y1="104" x2="99" y2="124" stroke="#444" stroke-width="2"/>
      <line x1="114" y1="104" x2="117" y2="124" stroke="#444" stroke-width="2"/>
      <line x1="99" y1="124" x2="94" y2="138" stroke="#444" stroke-width="1.6"/>
      <line x1="117" y1="124" x2="122" y2="138" stroke="#444" stroke-width="1.6"/>
      <line x1="99" y1="124" x2="108" y2="138" stroke="#444" stroke-width="1.3"/>
      <line x1="117" y1="124" x2="108" y2="138" stroke="#444" stroke-width="1.3"/>
    </g>

    <!-- AI SOLUTIONS alineado a la derecha del DSD -->
    <text x="410" y="148" font-family="Arial, Helvetica, sans-serif" font-weight="300" font-size="22" fill="#444" letter-spacing="4">AI SOLUTIONS</text>
    <line x1="410" y1="156" x2="570" y2="156" stroke="#888" stroke-width="0.8"/>

  </g>
</svg>
